<mxfile host="app.diagrams.net" modified="2024-07-23T06:26:40.522Z" agent="Mozilla/5.0 (Windows NT 10.0; Win64; x64) AppleWebKit/537.36 (KHTML, like Gecko) Chrome/126.0.0.0 Safari/537.36" version="24.7.3" etag="XzKmSbCjs9Dd-e7Ah9_v" type="github">
  <diagram name="หน้า-1" id="ll4klm_I5Cu_4wee_YAN">
    <mxGraphModel>
      <root>
        <mxCell id="0" />
        <mxCell id="1" parent="0" />
      </root>
    </mxGraphModel>
  </diagram>
</mxfile>
